<mxfile host="app.diagrams.net" modified="2023-11-18T06:15:29.848Z" agent="Mozilla/5.0 (Windows NT 10.0; Win64; x64; rv:109.0) Gecko/20100101 Firefox/119.0" version="22.1.3" etag="3XVmS1ZtvY3i6RnHTnU2" type="github">
  <diagram name="Page-1" id="fLJU9265D6-5jjQkVBzz">
    <mxGraphModel>
      <root>
        <mxCell id="0" />
        <mxCell id="1" parent="0" />
      </root>
    </mxGraphModel>
  </diagram>
</mxfile>
